<?xml version="1.0" encoding="UTF-8" standalone="no"?>
<svg
   xmlns:dc="http://purl.org/dc/elements/1.1/"
   xmlns:cc="http://creativecommons.org/ns#"
   xmlns:rdf="http://www.w3.org/1999/02/22-rdf-syntax-ns#"
   xmlns:svg="http://www.w3.org/2000/svg"
   xmlns="http://www.w3.org/2000/svg"
   xmlns:sodipodi="http://sodipodi.sourceforge.net/DTD/sodipodi-0.dtd"
   xmlns:inkscape="http://www.inkscape.org/namespaces/inkscape"
   width="793.70081"
   height="1122.5197"
   viewBox="0 0 793.70081 1122.5197"
   version="1.1"
   id="svg3414"
   inkscape:version="1.0.1 (3bc2e813f5, 2020-09-07)"
   sodipodi:docname="B.svg">
  <defs
     id="defs3408" />
  <sodipodi:namedview
     id="base"
     pagecolor="#ffffff"
     bordercolor="#666666"
     borderopacity="1.0"
     inkscape:pageopacity="0.0"
     inkscape:pageshadow="2"
     inkscape:zoom="0.97426367"
     inkscape:cx="135.69016"
     inkscape:cy="138.23741"
     inkscape:document-units="px"
     inkscape:current-layer="layer1"
     inkscape:document-rotation="0"
     showgrid="false"
     units="px"
     inkscape:window-width="1267"
     inkscape:window-height="729"
     inkscape:window-x="52"
     inkscape:window-y="0"
     inkscape:window-maximized="0" />
  <metadata
     id="metadata3411">
    <rdf:RDF>
      <cc:Work
         rdf:about="">
        <dc:format>image/svg+xml</dc:format>
        <dc:type
           rdf:resource="http://purl.org/dc/dcmitype/StillImage" />
        <dc:title></dc:title>
      </cc:Work>
    </rdf:RDF>
  </metadata>
  <g
     inkscape:label="Layer 1"
     inkscape:groupmode="layer"
     id="layer1">
    <path
       id="path978-6"
       style="fill:#000000;fill-opacity:1;stroke:#000000;stroke-width:264.583px;stroke-linecap:butt;stroke-linejoin:miter;stroke-opacity:1"
       d="m 38593.703,36062.014 -10795.715,40291.598 7519.432,80.1 16.933,-62.53 14031.702,62.53 8.7,-31.52 618.57,6.7 3238.05,-3322.796 3583.755,-13375.41 -1852.053,-1901.162 3257.154,-3342.95 4003.886,-14942.241 -3373.437,-3462.319 z m 5645.15,7270.875 h 9406.652 L 50695.295,54342.55 H 41288.643 Z M 39233.994,61815.48 h 9461.95 l -1928.574,7224.884 h -9469.173 z" />
    <path
       id="path978"
       style="fill:#000000;fill-opacity:1;stroke:#000000;stroke-width:0.264583px;stroke-linecap:butt;stroke-linejoin:miter;stroke-opacity:1"
       d="m 122.92342,149.17228 -10.79572,40.2916 7.51944,0.0801 0.0169,-0.0625 14.0317,0.0625 0.009,-0.0315 0.61857,0.007 3.23805,-3.3228 3.58376,-13.37541 -1.85206,-1.90116 3.25716,-3.34295 4.00388,-14.94224 -3.37343,-3.46232 z m 5.64515,7.27087 h 9.40665 l -2.95021,11.00967 h -9.40665 z m -5.00486,18.48259 h 9.46195 l -1.92857,7.22489 h -9.46918 z" />
  </g>
</svg>
